HIERARCHY
ROOT Pelvis
{
	OFFSET 0.000000 0.000000 0.000000
	CHANNELS 6 Xposition Yposition Zposition Zrotation Yrotation Xrotation 
	JOINT Left_hip
	{
		OFFSET 0.076090 -0.089427 -0.010735
		CHANNELS 3 Zrotation Yrotation Xrotation
		JOINT Left_knee
		{
			OFFSET 0.030200 -0.359518 -0.003501
			CHANNELS 3 Zrotation Yrotation Xrotation
			JOINT Left_ankle
			{
				OFFSET -0.011005 -0.371022 -0.045888
				CHANNELS 3 Zrotation Yrotation Xrotation
				JOINT Left_foot
				{
					OFFSET 0.023930 -0.052103 0.111084
					CHANNELS 3 Zrotation Yrotation Xrotation
					End Site
					{
						OFFSET 0.000000 0.000000 0.000000
					}
				}
			}
		}
	}
	JOINT Right_hip
	{
		OFFSET -0.073836 -0.088112 -0.007709
		CHANNELS 3 Zrotation Yrotation Xrotation
		JOINT Right_knee
		{
			OFFSET -0.035715 -0.367809 -0.006536
			CHANNELS 3 Zrotation Yrotation Xrotation
			JOINT Right_ankle
			{
				OFFSET 0.013718 -0.371958 -0.043815
				CHANNELS 3 Zrotation Yrotation Xrotation
				JOINT Right_foot
				{
					OFFSET -0.021936 -0.046387 0.114542
					CHANNELS 3 Zrotation Yrotation Xrotation
					End Site
					{
						OFFSET 0.000000 0.000000 0.000000
					}
				}
			}
		}
	}
	JOINT Spine1
	{
		OFFSET -0.001865 0.102064 -0.019455
		CHANNELS 3 Zrotation Yrotation Xrotation
		JOINT Spine2
		{
			OFFSET 0.003082 0.129260 -0.001938
			CHANNELS 3 Zrotation Yrotation Xrotation
			JOINT Spine3
			{
				OFFSET 0.001104 0.048093 0.026561
				CHANNELS 3 Zrotation Yrotation Xrotation
				JOINT Neck
				{
					OFFSET -0.002010 0.204222 -0.047183
					CHANNELS 3 Zrotation Yrotation Xrotation
					JOINT Head
					{
						OFFSET 0.005050 0.063649 0.048489
						CHANNELS 3 Zrotation Yrotation Xrotation
						End Site
						{
							OFFSET 0.000000 0.000000 0.000000
						}
					}
				}
				JOINT Left_collar
				{
					OFFSET 0.072979 0.114065 -0.031633
					CHANNELS 3 Zrotation Yrotation Xrotation
					JOINT Left_shoulder
					{
						OFFSET 0.083419 0.032092 -0.006530
						CHANNELS 3 Zrotation Yrotation Xrotation
						JOINT Left_elbow
						{
							OFFSET 0.239393 -0.012014 -0.025060
							CHANNELS 3 Zrotation Yrotation Xrotation
							JOINT Left_wrist
							{
								OFFSET 0.227297 0.008116 0.000384
								CHANNELS 3 Zrotation Yrotation Xrotation
								JOINT Left_palm
								{
									OFFSET 0.074607 -0.009248 -0.012277
									CHANNELS 3 Zrotation Yrotation Xrotation
									End Site
									{
										OFFSET 0.000000 0.000000 0.000000
									}
								}
							}
						}
					}
				}
				JOINT Right_collar
				{
					OFFSET -0.074980 0.111880 -0.037894
					CHANNELS 3 Zrotation Yrotation Xrotation
					JOINT Right_shoulder
					{
						OFFSET -0.087565 0.034353 -0.009323
						CHANNELS 3 Zrotation Yrotation Xrotation
						JOINT Right_elbow
						{
							OFFSET -0.236838 -0.013719 -0.019794
							CHANNELS 3 Zrotation Yrotation Xrotation
							JOINT Right_wrist
							{
								OFFSET -0.235053 0.006433 -0.003853
								CHANNELS 3 Zrotation Yrotation Xrotation
								JOINT Right_palm
								{
									OFFSET -0.075499 -0.006894 -0.009792
									CHANNELS 3 Zrotation Yrotation Xrotation
									End Site
									{
										OFFSET 0.000000 0.000000 0.000000
									}
								}
							}
						}
					}
				}
			}
		}
	}
}
MOTION
Frames: 6
Frame Time: 0.100000
0.000000 0.000000 0.000000 176.351923 28.109871 -15.020663 1.687106 -2.681376 4.895026 -2.529945 -10.920714 -6.017314 -4.467719 2.148567 -1.055860 5.013849 6.546815 -4.384673 -0.580712 -1.776117 8.025731 3.972468 3.054741 -4.740122 8.836023 -8.052071 -8.076654 -12.734824 11.419510 4.632379 2.612287 3.254382 2.154727 0.717545 -1.833775 5.157233 0.833693 0.861406 -0.904625 -7.156372 13.964111 -8.427215 -8.713947 4.296139 14.156525 -27.888407 -20.586184 3.498223 -49.493432 -26.101446 14.399931 12.766009 -25.689634 -5.333029 8.015807 -9.734060 4.225958 -11.322211 -3.739382 -8.233335 29.300643 20.536624 6.629192 38.062919 19.163250 11.201884 -9.913784 22.047114 -10.040383 -3.309042 6.697573 -4.336164 12.139868 5.447492 -4.799114 
0.003229 0.000055 0.001169 176.239346 29.175305 -15.172104 1.615353 -3.323317 4.746413 -2.322377 -11.124199 -5.814699 -4.562950 2.363169 -1.090908 5.356845 5.928569 -4.265266 -0.440741 -1.893007 8.214534 4.086751 2.597233 -4.744552 8.403871 -8.259083 -8.193614 -12.250838 11.039709 4.821830 2.584528 3.295240 2.098891 0.991914 -1.774542 5.136113 0.999154 0.939995 -0.720871 -6.777307 13.933757 -8.192441 -8.518661 4.321844 14.817867 -28.011888 -19.391124 3.901459 -50.493467 -24.693758 15.190074 12.843770 -27.972319 -5.102921 8.008856 -10.575140 0.995558 -10.815301 -3.635131 -6.927000 29.774338 20.294229 7.002853 38.707685 19.871491 12.230659 -9.391426 22.023382 -7.432571 -2.880549 6.805024 -1.350188 11.394648 5.499752 -4.359622 
0.005273 0.000476 0.004159 176.347796 29.405938 -15.088702 1.615815 -3.215111 4.647872 -2.271864 -11.796139 -5.546814 -4.590589 2.863880 -1.424206 5.831136 5.187842 -4.127343 -0.396133 -1.917432 8.306185 4.159573 2.868409 -4.716299 8.332256 -8.556173 -8.451679 -12.439765 10.458212 4.678762 2.596339 3.481643 2.214155 1.354381 -1.466241 5.207389 1.152329 0.893916 -0.403897 -6.061479 13.213885 -7.797632 -8.316050 3.849932 14.149451 -29.670768 -15.637212 4.352668 -50.914474 -19.427638 14.875849 9.391918 -23.983979 -1.080009 6.510380 -9.408847 3.868815 -11.969343 -4.413450 -9.800081 31.363365 17.422183 7.256643 39.139360 16.703257 12.244984 -7.982590 19.493130 -6.589348 -1.668712 6.023133 -0.219725 12.228956 5.872629 -5.542395 
0.005421 0.000500 0.008810 176.504678 29.317917 -14.857936 1.662024 -2.500400 4.779655 -2.230983 -12.831913 -5.541706 -4.978823 3.698064 -1.827414 6.759027 3.841904 -4.224533 -0.247504 -1.791470 8.228755 3.977754 3.497540 -4.313062 8.623872 -8.867134 -8.952517 -13.608980 9.331968 3.866289 2.940805 3.312616 2.689676 1.531643 -1.402374 4.705768 1.206307 0.550108 0.142341 -6.012437 12.519544 -7.355087 -8.149880 4.046506 12.780814 -31.166478 -10.650666 4.917960 -51.860668 -11.985647 13.009239 5.731715 -12.689095 2.914224 5.553122 -8.348053 8.843714 -13.096849 -5.247769 -14.151639 32.304298 13.074086 7.351429 40.787550 11.222397 11.974649 -6.318705 14.454395 -5.073930 -1.684013 5.616832 0.555924 13.313312 6.097920 -6.931362 
0.004248 -0.000488 0.016618 176.694227 29.478229 -14.696318 1.626159 -1.934809 5.321601 -2.081714 -13.968862 -5.726491 -5.669057 4.804185 -2.252419 8.184341 2.019143 -4.453081 -0.230174 -1.993346 8.867402 3.769881 4.468677 -4.620330 9.719752 -9.299765 -9.352837 -16.434167 8.646838 2.429755 3.252272 3.026100 2.690123 1.629518 -1.781909 4.365695 1.272464 0.052837 1.084122 -7.279471 12.347177 -6.850418 -8.113866 5.121616 10.964709 -31.398279 -5.577002 5.058328 -53.878679 -4.588033 9.828078 3.683148 0.990545 3.507031 3.768580 -5.750842 11.039744 -14.126713 -6.190903 -17.334710 32.316942 8.094940 6.891871 43.043439 5.086408 10.890478 -5.760562 7.993706 -4.187217 0.215751 4.083919 3.079056 14.365175 6.553633 -8.205636 
0.005259 -0.001894 0.022808 177.055622 28.829225 -14.027410 1.772684 -1.762764 5.401681 -2.069671 -14.133853 -6.088727 -6.764329 6.155974 -2.387434 10.418217 0.487734 -5.177101 -0.326481 -2.013973 8.983995 3.812435 5.351445 -5.326989 11.229416 -9.251601 -9.072191 -19.195561 7.823890 1.233422 3.582783 2.900798 2.472443 1.619926 -1.429471 3.985495 1.277887 0.079994 1.910298 -8.358677 13.052114 -6.541379 -8.524533 6.258923 9.971784 -30.571061 -0.073594 4.683577 -55.567893 2.294000 8.301164 2.624629 4.116770 6.173234 -0.484077 -4.943439 11.791248 -14.537408 -6.649940 -19.702853 31.715258 3.529194 6.604804 44.373029 0.410560 9.567293 -5.485790 2.676969 -4.582617 2.920626 2.411146 5.309226 14.920403 6.737873 -9.816082 
